<svg xmlns="http://www.w3.org/2000/svg" viewBox="0 0 1024 1024" width="1024" height="1024">
  <rect width="1024" height="1024" rx="225" ry="225" fill="#0C2E5A"/>
  <circle cx="512" cy="512" r="320" fill="none" stroke="#1A8E3F" stroke-width="80"/>
  <g transform="translate(512, 512) scale(20) translate(-12, -12)">
    <path fill="white" d="M5 11l1.5-4.5h11L19 11M17.5 16a1.5 1.5 0 1 1 0-3 1.5 1.5 0 0 1 0 3m-11 0a1.5 1.5 0 1 1 0-3 1.5 1.5 0 0 1 0 3M18.92 6.01C18.72 5.42 18.16 5 17.5 5h-11c-.66 0-1.21.42-1.42 1.01L3 12v8a1 1 0 0 0 1 1h1a1 1 0 0 0 1-1v-1h12v1a1 1 0 0 0 1 1h1a1 1 0 0 0 1-1v-8z"/>
  </g>
</svg>
